<svg width="400" height="400" viewBox="0 0 400 400" xmlns="http://www.w3.org/2000/svg">
<line x1="200" y1="200" 
                    x2="240.0" y2="200.0" 
                    stroke-width="1" stroke="black"/><line x1="240.0" y1="200.0" 
                    x2="264.9395920743493" y2="168.7267407012788" 
                    stroke-width="1" stroke="black"/><line x1="264.9395920743493" y1="168.7267407012788" 
                    x2="256.0387547160967" y2="129.72962421400587" 
                    stroke-width="1" stroke="black"/><line x1="256.0387547160967" y1="129.72962421400587" 
                    x2="219.99999999999994" y2="112.37427464930354" 
                    stroke-width="1" stroke="black"/><line x1="219.99999999999994" y1="112.37427464930354" 
                    x2="183.96124528390317" y2="129.72962421400587" 
                    stroke-width="1" stroke="black"/><line x1="183.96124528390317" y1="129.72962421400587" 
                    x2="175.0604079256506" y2="168.7267407012788" 
                    stroke-width="1" stroke="black"/><line x1="175.0604079256506" y1="168.7267407012788" 
                    x2="199.99999999999994" y2="200.0" 
                    stroke-width="1" stroke="black"/><line x1="239.99999999999994" y1="200.0" 
                    x2="264.93959207434926" y2="231.2732592987212" 
                    stroke-width="1" stroke="black"/><line x1="264.93959207434926" y1="231.2732592987212" 
                    x2="304.93959207434926" y2="231.2732592987212" 
                    stroke-width="1" stroke="black"/><line x1="304.93959207434926" y1="231.2732592987212" 
                    x2="329.87918414869864" y2="200.00000000000003" 
                    stroke-width="1" stroke="black"/><line x1="329.87918414869864" y1="200.00000000000003" 
                    x2="320.9783467904461" y2="161.00288351272707" 
                    stroke-width="1" stroke="black"/><line x1="320.9783467904461" y1="161.00288351272707" 
                    x2="284.9395920743493" y2="143.64753394802472" 
                    stroke-width="1" stroke="black"/><line x1="284.9395920743493" y1="143.64753394802472" 
                    x2="248.90083735825255" y2="161.00288351272704" 
                    stroke-width="1" stroke="black"/><line x1="248.90083735825255" y1="161.00288351272704" 
                    x2="239.99999999999994" y2="199.99999999999997" 
                    stroke-width="1" stroke="black"/><line x1="264.93959207434926" y1="231.27325929872117" 
                    x2="256.03875471609666" y2="270.27037578599413" 
                    stroke-width="1" stroke="black"/><line x1="256.03875471609666" y1="270.27037578599413" 
                    x2="280.978346790446" y2="301.54363508471533" 
                    stroke-width="1" stroke="black"/><line x1="280.978346790446" y1="301.54363508471533" 
                    x2="320.978346790446" y2="301.54363508471533" 
                    stroke-width="1" stroke="black"/><line x1="320.978346790446" y1="301.54363508471533" 
                    x2="345.91793886479536" y2="270.27037578599413" 
                    stroke-width="1" stroke="black"/><line x1="345.91793886479536" y1="270.27037578599413" 
                    x2="337.0171015065428" y2="231.2732592987212" 
                    stroke-width="1" stroke="black"/><line x1="337.0171015065428" y1="231.2732592987212" 
                    x2="300.97834679044604" y2="213.91790973401885" 
                    stroke-width="1" stroke="black"/><line x1="300.97834679044604" y1="213.91790973401885" 
                    x2="264.93959207434926" y2="231.27325929872114" 
                    stroke-width="1" stroke="black"/><line x1="256.03875471609666" y1="270.2703757859941" 
                    x2="219.9999999999999" y2="287.62572535069637" 
                    stroke-width="1" stroke="black"/><line x1="219.9999999999999" y1="287.62572535069637" 
                    x2="211.09916264174728" y2="326.6228418379693" 
                    stroke-width="1" stroke="black"/><line x1="211.09916264174728" y1="326.6228418379693" 
                    x2="236.0387547160966" y2="357.8961011366905" 
                    stroke-width="1" stroke="black"/><line x1="236.0387547160966" y1="357.8961011366905" 
                    x2="276.0387547160966" y2="357.89610113669056" 
                    stroke-width="1" stroke="black"/><line x1="276.0387547160966" y1="357.89610113669056" 
                    x2="300.978346790446" y2="326.62284183796936" 
                    stroke-width="1" stroke="black"/><line x1="300.978346790446" y1="326.62284183796936" 
                    x2="292.07750943219344" y2="287.6257253506964" 
                    stroke-width="1" stroke="black"/><line x1="292.07750943219344" y1="287.6257253506964" 
                    x2="256.03875471609666" y2="270.2703757859941" 
                    stroke-width="1" stroke="black"/><line x1="219.9999999999999" y1="287.62572535069637" 
                    x2="183.96124528390314" y2="270.270375785994" 
                    stroke-width="1" stroke="black"/><line x1="183.96124528390314" y1="270.270375785994" 
                    x2="147.92249056780636" y2="287.6257253506963" 
                    stroke-width="1" stroke="black"/><line x1="147.92249056780636" y1="287.6257253506963" 
                    x2="139.02165320955376" y2="326.62284183796925" 
                    stroke-width="1" stroke="black"/><line x1="139.02165320955376" y1="326.62284183796925" 
                    x2="163.96124528390308" y2="357.89610113669045" 
                    stroke-width="1" stroke="black"/><line x1="163.96124528390308" y1="357.89610113669045" 
                    x2="203.96124528390308" y2="357.8961011366905" 
                    stroke-width="1" stroke="black"/><line x1="203.96124528390308" y1="357.8961011366905" 
                    x2="228.90083735825246" y2="326.62284183796936" 
                    stroke-width="1" stroke="black"/><line x1="228.90083735825246" y1="326.62284183796936" 
                    x2="219.99999999999991" y2="287.6257253506964" 
                    stroke-width="1" stroke="black"/><line x1="183.96124528390317" y1="270.2703757859941" 
                    x2="175.06040792565062" y2="231.27325929872111" 
                    stroke-width="1" stroke="black"/><line x1="175.06040792565062" y1="231.27325929872111" 
                    x2="139.02165320955388" y2="213.91790973401874" 
                    stroke-width="1" stroke="black"/><line x1="139.02165320955388" y1="213.91790973401874" 
                    x2="102.9828984934571" y2="231.27325929872103" 
                    stroke-width="1" stroke="black"/><line x1="102.9828984934571" y1="231.27325929872103" 
                    x2="94.08206113520448" y2="270.27037578599396" 
                    stroke-width="1" stroke="black"/><line x1="94.08206113520448" y1="270.27037578599396" 
                    x2="119.02165320955379" y2="301.54363508471516" 
                    stroke-width="1" stroke="black"/><line x1="119.02165320955379" y1="301.54363508471516" 
                    x2="159.0216532095538" y2="301.5436350847152" 
                    stroke-width="1" stroke="black"/><line x1="159.0216532095538" y1="301.5436350847152" 
                    x2="183.96124528390317" y2="270.2703757859941" 
                    stroke-width="1" stroke="black"/><line x1="175.06040792565065" y1="231.27325929872111" 
                    x2="200.00000000000003" y2="199.99999999999994" 
                    stroke-width="1" stroke="black"/><line x1="200.00000000000003" y1="199.99999999999994" 
                    x2="191.0991626417475" y2="161.00288351272698" 
                    stroke-width="1" stroke="black"/><line x1="191.0991626417475" y1="161.00288351272698" 
                    x2="155.06040792565076" y2="143.6475339480246" 
                    stroke-width="1" stroke="black"/><line x1="155.06040792565076" y1="143.6475339480246" 
                    x2="119.02165320955397" y2="161.00288351272687" 
                    stroke-width="1" stroke="black"/><line x1="119.02165320955397" y1="161.00288351272687" 
                    x2="110.12081585130134" y2="199.9999999999998" 
                    stroke-width="1" stroke="black"/><line x1="110.12081585130134" y1="199.9999999999998" 
                    x2="135.06040792565065" y2="231.27325929872103" 
                    stroke-width="1" stroke="black"/><line x1="135.06040792565065" y1="231.27325929872103" 
                    x2="175.06040792565065" y2="231.2732592987211" 
                    stroke-width="1" stroke="black"/>
</svg>
