<?xml version="1.0" encoding="UTF-8" standalone="no"?>
<!-- Created with Inkscape (http://www.inkscape.org/) -->

<svg
   xmlns:dc="http://purl.org/dc/elements/1.1/"
   xmlns:cc="http://creativecommons.org/ns#"
   xmlns:rdf="http://www.w3.org/1999/02/22-rdf-syntax-ns#"
   xmlns:svg="http://www.w3.org/2000/svg"
   xmlns="http://www.w3.org/2000/svg"
   xmlns:sodipodi="http://sodipodi.sourceforge.net/DTD/sodipodi-0.dtd"
   xmlns:inkscape="http://www.inkscape.org/namespaces/inkscape"
   width="297mm"
   height="210mm"
   viewBox="0 0 297 210"
   version="1.1"
   id="svg8"
   inkscape:version="0.92.2 (5c3e80d, 2017-08-06)"
   sodipodi:docname="dibujo.svg">
  <defs
     id="defs2" />
  <sodipodi:namedview
     id="base"
     pagecolor="#ffffff"
     bordercolor="#666666"
     borderopacity="1.0"
     inkscape:pageopacity="0.0"
     inkscape:pageshadow="2"
     inkscape:zoom="0.98994949"
     inkscape:cx="562.52452"
     inkscape:cy="396.85039"
     inkscape:document-units="mm"
     inkscape:current-layer="layer1"
     showgrid="false"
     inkscape:window-width="1920"
     inkscape:window-height="1017"
     inkscape:window-x="-8"
     inkscape:window-y="-8"
     inkscape:window-maximized="1" />
  <metadata
     id="metadata5">
    <rdf:RDF>
      <cc:Work
         rdf:about="">
        <dc:format>image/svg+xml</dc:format>
        <dc:type
           rdf:resource="http://purl.org/dc/dcmitype/StillImage" />
        <dc:title></dc:title>
      </cc:Work>
    </rdf:RDF>
  </metadata>
  <g
     inkscape:label="Capa 1"
     inkscape:groupmode="layer"
     id="layer1"
     transform="translate(0,-87)">
    <path
       style="opacity:1;fill:#ff00ff;fill-opacity:1;stroke:#000000;stroke-width:0.1;stroke-miterlimit:4;stroke-dasharray:none;stroke-opacity:1"
       inkscape:transform-center-x="4.0245776"
       inkscape:transform-center-y="0.52129208"
       d="m 111.71866,176.19418 -34.379581,-5.27896 -17.932843,24.36147 -1.657897,-31.23456 -32.656073,-12.62069 26.409451,-0.76936 4.695771,-45.41719 8.892672,24.87914 44.64538,-9.56874 -37.216915,30.84533 z"
       id="path815"
       inkscape:connector-curvature="0"
       sodipodi:nodetypes="ccccccccccc" />
    <path
       style="opacity:1;fill:#ac9393;fill-opacity:1;stroke:#000000;stroke-width:0.1;stroke-miterlimit:4;stroke-dasharray:none;stroke-opacity:1"
       inkscape:transform-center-x="-0.49554296"
       inkscape:transform-center-y="2.79552"
       d="m 159.5599,176.99599 -29.16763,-22.8609 -2.86496,-27.06607 23.7148,12.97544 35.53953,-15.75299 -18.06689,24.05074 z"
       id="path817"
       inkscape:connector-curvature="0"
       sodipodi:nodetypes="ccccccc" />
    <path
       style="opacity:1;fill:#ff6600;fill-opacity:1;stroke:#000000;stroke-width:0.1;stroke-miterlimit:4;stroke-dasharray:none;stroke-opacity:1"
       inkscape:transform-center-x="5.8754786"
       inkscape:transform-center-y="-6.9490083"
       d="m 24.856071,261.72042 7.379628,-31.88782 51.945299,-30.15948 23.925852,22.33486 0.14622,60.06569 -31.305479,9.55296 z"
       id="path819" />
    <path
       style="opacity:1;fill:#00ffff;fill-opacity:1;stroke:#000000;stroke-width:0.08158508;stroke-miterlimit:4;stroke-dasharray:none;stroke-opacity:1"
       inkscape:transform-center-x="-0.10746631"
       inkscape:transform-center-y="3.4991393"
       d="m 123.26534,188.74066 -5.19052,27.21201 19.98409,14.77299 -26.17626,0.6509 -11.29579,25.68544 -0.0502,-21.00651 -37.902327,-4.70171 21.02027,-6.53674 -7.0042,-35.68817 24.976717,20.25072 z"
       id="path815-9"
       inkscape:connector-curvature="0"
       sodipodi:nodetypes="ccccccccccc" />
    <path
       style="opacity:1;fill:#d35f5f;fill-opacity:1;stroke:#000000;stroke-width:0.1;stroke-miterlimit:4;stroke-dasharray:none;stroke-opacity:1"
       inkscape:transform-center-x="-3.2378455"
       inkscape:transform-center-y="-1.0905687"
       d="m 138.13318,130.46618 -23.63579,28.54331 -27.133239,2.13722 13.607499,-23.35786 -14.793094,-35.94969 23.556984,18.70613 z"
       id="path817-9"
       inkscape:connector-curvature="0"
       sodipodi:nodetypes="ccccccc" />
    <path
       inkscape:connector-curvature="0"
       style="opacity:1;fill:#ff0000;fill-opacity:1;stroke:#000000;stroke-width:0.1;stroke-miterlimit:4;stroke-dasharray:none;stroke-opacity:1"
       inkscape:transform-center-x="6.7281036"
       inkscape:transform-center-y="5.6582267"
       d="m 208.60447,263.9991 -31.67818,-8.23314 -28.75391,-52.73635 22.96921,-23.31753 60.04796,1.46656 8.70898,31.55069 z"
       id="path819-9" />
    <path
       style="opacity:1;fill:#ff00ff;fill-opacity:1;stroke:#000000;stroke-width:0.07991672;stroke-miterlimit:4;stroke-dasharray:none;stroke-opacity:1"
       inkscape:transform-center-x="-2.7373211"
       inkscape:transform-center-y="-0.85687941"
       d="m 173.61744,209.36277 11.46411,-25.17248 -14.99299,-19.01227 24.51509,5.50648 16.77272,-22.26052 -5.07477,20.38337 34.12093,13.4468 -21.15257,1.41042 -2.18374,36.25182 -15.86798,-35.18078 z"
       id="path815-4"
       inkscape:connector-curvature="0"
       sodipodi:nodetypes="ccccccccccc" />
    <path
       style="opacity:1;fill:#ccff00;fill-opacity:1;stroke:#000000;stroke-width:0.07991672;stroke-miterlimit:4;stroke-dasharray:none;stroke-opacity:1"
       inkscape:transform-center-x="0.42071701"
       inkscape:transform-center-y="3.3490461"
       d="m 162.72622,245.81138 23.94433,-17.36874 21.55001,3.67822 -15.12751,15.339 4.55455,30.6228 -14.72385,-19.04747 z"
       id="path817-1"
       inkscape:connector-curvature="0"
       sodipodi:nodetypes="ccccccc" />
    <path
       inkscape:connector-curvature="0"
       style="opacity:1;fill:#ff6600;fill-opacity:1;stroke:#000000;stroke-width:0.07991672;stroke-miterlimit:4;stroke-dasharray:none;stroke-opacity:1"
       inkscape:transform-center-x="-3.6285405"
       inkscape:transform-center-y="-2.2250186"
       d="m 124.30435,118.12297 25.21826,31.80983 10.03729,27.06319 -22.41209,13.47026 -46.4907,-12.9179 -0.668,-26.03668 z"
       id="path819-91"
       sodipodi:nodetypes="ccccccc" />
    <path
       style="opacity:1;fill:#00ff00;fill-opacity:1;stroke:#000000;stroke-width:0.06520013;stroke-miterlimit:4;stroke-dasharray:none;stroke-opacity:1"
       inkscape:transform-center-x="0.36181945"
       inkscape:transform-center-y="-2.4422192"
       d="m 161.4341,215.48011 -19.93346,-9.87636 -15.71693,12.0932 5.11633,-20.17917 -17.44194,-14.21878 16.25878,4.51844 11.77391,-27.99437 0.54316,17.50905 29.10764,2.37996 -3.92043,23.27943 z"
       id="path815-9-2"
       inkscape:connector-curvature="0"
       sodipodi:nodetypes="ccccccccccc" />
    <path
       style="opacity:1;fill:#008000;fill-opacity:1;stroke:#000000;stroke-width:0.07991672;stroke-miterlimit:4;stroke-dasharray:none;stroke-opacity:1"
       inkscape:transform-center-x="-3.5121282"
       inkscape:transform-center-y="0.0639561"
       d="m 203.31597,239.50273 -17.00316,-24.28503 4.17215,-21.23416 15.14532,15.4835 30.98213,-3.5257 -19.52619,13.97505 z"
       id="path817-9-5"
       inkscape:connector-curvature="0"
       sodipodi:nodetypes="ccccccc" />
    <path
       inkscape:connector-curvature="0"
       style="opacity:1;fill:#808000;fill-opacity:1;stroke:#000000;stroke-width:0.07991672;stroke-miterlimit:4;stroke-dasharray:none;stroke-opacity:1"
       inkscape:transform-center-x="2.0384037"
       inkscape:transform-center-y="-3.2572869"
       d="m 84.90211,264.48182 13.16912,-22.46372 46.96342,-10.57126 13.10427,22.64115 31.40976,1.01466 -65.56202,26.01498 z"
       id="path819-9-5"
       sodipodi:nodetypes="ccccccc" />
    <path
       style="opacity:1;fill:#ff00ff;fill-opacity:1;stroke:#000000;stroke-width:0.1;stroke-miterlimit:4;stroke-dasharray:none;stroke-opacity:1"
       inkscape:transform-center-x="4.0245776"
       inkscape:transform-center-y="0.52129208"
       d="m 195.46111,171.97512 -34.37958,-5.27896 -17.93284,24.36147 -1.6579,-31.23456 -32.65607,-12.62069 26.40945,-0.76936 4.69577,-45.41719 8.89268,24.87914 44.64537,-9.56874 -37.21691,30.84533 z"
       id="path815-45"
       inkscape:connector-curvature="0"
       sodipodi:nodetypes="ccccccccccc" />
    <path
       style="opacity:1;fill:#ac9393;fill-opacity:1;stroke:#000000;stroke-width:0.1;stroke-miterlimit:4;stroke-dasharray:none;stroke-opacity:1"
       inkscape:transform-center-x="-0.49554296"
       inkscape:transform-center-y="2.79552"
       d="m 243.30235,172.77693 -29.16763,-22.8609 -2.86496,-27.06607 23.7148,12.97544 35.53953,-15.75299 -18.06689,24.05074 z"
       id="path817-0"
       inkscape:connector-curvature="0"
       sodipodi:nodetypes="ccccccc" />
    <path
       inkscape:connector-curvature="0"
       style="opacity:1;fill:#ff6600;fill-opacity:1;stroke:#000000;stroke-width:0.1;stroke-miterlimit:4;stroke-dasharray:none;stroke-opacity:1"
       inkscape:transform-center-x="5.8754786"
       inkscape:transform-center-y="-6.9490083"
       d="m 108.59853,257.50136 7.37962,-31.88782 51.9453,-30.15948 23.92585,22.33486 0.14623,60.06569 -31.30549,9.55296 z"
       id="path819-4" />
    <path
       style="opacity:1;fill:#00ffff;fill-opacity:1;stroke:#000000;stroke-width:0.08158508;stroke-miterlimit:4;stroke-dasharray:none;stroke-opacity:1"
       inkscape:transform-center-x="-0.10746631"
       inkscape:transform-center-y="3.4991393"
       d="m 207.00779,184.5216 -5.19052,27.21201 19.98409,14.77299 -26.17626,0.6509 -11.29579,25.68544 -0.0502,-21.00651 -37.90232,-4.70171 21.02027,-6.53674 -7.0042,-35.68817 24.97671,20.25072 z"
       id="path815-9-5"
       inkscape:connector-curvature="0"
       sodipodi:nodetypes="ccccccccccc" />
    <path
       style="opacity:1;fill:#d35f5f;fill-opacity:1;stroke:#000000;stroke-width:0.1;stroke-miterlimit:4;stroke-dasharray:none;stroke-opacity:1"
       inkscape:transform-center-x="-3.2378455"
       inkscape:transform-center-y="-1.0905687"
       d="m 221.87563,126.24712 -23.63578,28.54331 -27.13324,2.13722 13.6075,-23.35786 -14.7931,-35.94969 23.55698,18.70613 z"
       id="path817-9-1"
       inkscape:connector-curvature="0"
       sodipodi:nodetypes="ccccccc" />
    <path
       inkscape:connector-curvature="0"
       style="opacity:1;fill:#d38d5f;fill-opacity:1;stroke:#000000;stroke-width:0.07477285;stroke-miterlimit:4;stroke-dasharray:none;stroke-opacity:1"
       inkscape:transform-center-x="5.1030912"
       inkscape:transform-center-y="4.1708774"
       d="m 268.83715,244.38506 -24.02708,-6.06893 -21.80909,-38.87381 17.42155,-17.18817 45.54482,1.08105 6.60553,23.25712 z"
       id="path819-9-4" />
    <path
       style="opacity:1;fill:#ff00ff;fill-opacity:1;stroke:#000000;stroke-width:0.07991672;stroke-miterlimit:4;stroke-dasharray:none;stroke-opacity:1"
       inkscape:transform-center-x="-2.7373211"
       inkscape:transform-center-y="-0.85687941"
       d="m 50.970443,265.37246 11.46411,-25.17248 -14.99299,-19.01227 24.51509,5.50648 16.772717,-22.26052 -5.074767,20.38337 34.120927,13.4468 -21.15257,1.41042 -2.18374,36.25182 -15.867977,-35.18078 z"
       id="path815-4-3"
       inkscape:connector-curvature="0"
       sodipodi:nodetypes="ccccccccccc" />
    <path
       style="opacity:1;fill:#ccff00;fill-opacity:1;stroke:#000000;stroke-width:0.07991672;stroke-miterlimit:4;stroke-dasharray:none;stroke-opacity:1"
       inkscape:transform-center-x="0.42071701"
       inkscape:transform-center-y="3.3490461"
       d="m 216.26721,244.26502 23.94433,-17.36874 21.55001,3.67822 -15.12751,15.339 4.55455,30.6228 -14.72385,-19.04747 z"
       id="path817-1-9"
       inkscape:connector-curvature="0"
       sodipodi:nodetypes="ccccccc" />
    <path
       inkscape:connector-curvature="0"
       style="opacity:1;fill:#ff6600;fill-opacity:1;stroke:#000000;stroke-width:0.07991672;stroke-miterlimit:4;stroke-dasharray:none;stroke-opacity:1"
       inkscape:transform-center-x="-3.6285405"
       inkscape:transform-center-y="-2.2250186"
       d="m 208.0468,113.90391 25.21826,31.80983 10.03729,27.06319 -22.41209,13.47026 -46.4907,-12.9179 -0.668,-26.03668 z"
       id="path819-91-4"
       sodipodi:nodetypes="ccccccc" />
    <path
       style="opacity:1;fill:#00ff00;fill-opacity:1;stroke:#000000;stroke-width:0.06520013;stroke-miterlimit:4;stroke-dasharray:none;stroke-opacity:1"
       inkscape:transform-center-x="0.36181945"
       inkscape:transform-center-y="-2.4422192"
       d="m 245.17655,211.26105 -19.93346,-9.87636 -15.71693,12.0932 5.11633,-20.17917 -17.44194,-14.21878 16.25878,4.51844 11.77391,-27.99437 0.54316,17.50905 29.10764,2.37996 -21.56022,12.58865 z"
       id="path815-9-2-3"
       inkscape:connector-curvature="0"
       sodipodi:nodetypes="ccccccccccc" />
    <path
       style="opacity:1;fill:#008000;fill-opacity:1;stroke:#000000;stroke-width:0.07991672;stroke-miterlimit:4;stroke-dasharray:none;stroke-opacity:1"
       inkscape:transform-center-x="-3.5121282"
       inkscape:transform-center-y="0.0639561"
       d="m 253.25354,227.77334 -17.00316,-24.28503 4.17215,-21.23416 15.14532,15.4835 30.98213,-3.5257 -19.52619,13.97505 z"
       id="path817-9-5-9"
       inkscape:connector-curvature="0"
       sodipodi:nodetypes="ccccccc" />
    <path
       inkscape:connector-curvature="0"
       style="opacity:1;fill:#808000;fill-opacity:1;stroke:#000000;stroke-width:0.07991672;stroke-miterlimit:4;stroke-dasharray:none;stroke-opacity:1"
       inkscape:transform-center-x="2.0384037"
       inkscape:transform-center-y="-3.2572869"
       d="m 168.64456,260.26276 13.16912,-22.46372 46.96342,-10.57126 13.10427,22.64115 31.40976,1.01466 -65.56202,26.01498 z"
       id="path819-9-5-8"
       sodipodi:nodetypes="ccccccc" />
  </g>
</svg>
